<?xml version="1.0" encoding="utf-8"?>
<?xml-stylesheet type="text/xsl" href="rss1.xsl"?>
<rss version="2.0" xmlns:atom="http://www.w3.org/2005/Atom" xmlns:content="http://purl.org/rss/1.0/modules/content/" xmlns:dc="http://purl.org/dc/elements/1.1/" xmlns:media="http://search.yahoo.com/mrss/">
<channel>
 <title>Getty</title>
 <link>http://www.gettyimg.com/</link>
 <atom:link href="http://www.gettyimg.com/" rel="self" type="application/rss+xml" />

 
                <item>
                <title><![CDATA[【HD Live Performances】WEB-DL - Capital FM Jingle Bell Ball, Live Stream (1080p) (Live Stream) (9/12/23) [MAVERICK]]]></title>
                <link><![CDATA[https://sharemania.us/threads/capital-fm-jingle-bell-ball-live-stream-1080p-live-stream-9-12-23-maverick.233702/]]></link>
                <description><![CDATA[<article>
<blockquote class="messageText SelectQuoteContainer ugc baseHtml">
<div style="text-align: center"><b>Capital FM Jingle Bell Ball, Live Stream (1080p) (Live Stream) (9/12/23) [MAVERICK]<br>
<img src="https://i.postimg.cc/YqssqQv0/Capital-FM-Jingle-Bell-Ball-Live-Stream-1080p-Live-Stream-9-12-23-MAVERICK.jpg" class="bbCodeImage LbImage" alt="[​IMG]" data-url="https://i.postimg.cc/YqssqQv0/Capital-FM-Jingle-Bell-Ball-Live-Stream-1080p-Live-Stream-9-12-23-MAVERICK.jpg" style=""> </b>​</div>
<div class="ToggleTriggerAnchor bbCodeSpoilerContainer">
<button type="button" class="button bbCodeSpoilerButton ToggleTrigger Tooltip JsOnly" data-target="> .SpoilerTarget"><span>Spoiler: <span class="SpoilerTitle">Media Info:</span></span></button>
<div class="SpoilerTarget bbCodeSpoilerText">General<br>
Complete name : C:\Users\Maverick\Desktop\Capital FM Jingle Bell Ball, Live Stream (1080p) (Live Stream) (9/12/23) [MAVERICK].mkv<br>
Format : Matroska<br>
Format version : Version 4<br>
File size : 9.80 GiB<br>
Duration : 4 h 19 min<br>
Overall bit rate : 5 399 kb/s<br>
Frame rate : 25.000 FPS<br>
Movie name : Capital FM Jingle Bell Ball, Live Stream (1080p) (Live Stream) (9/12/23) [MAVERICK]<br>
Encoded date : 2023-12-09 22:48:18 UTC<br>
Writing application : mkvmerge v79.0 ('Funeral Pyres') 64-bit<br>
Writing library : libebml v1.4.4 + libmatroska v1.7.1 / VideoReDo (Lavf58.29.100)<br>
<br>
Video<br>
ID : 1<br>
Format : AVC<br>
Format/Info : Advanced Video Codec<br>
Format profile : High@L4<br>
Format settings : CABAC / 4 Ref Frames<br>
Format settings, CABAC : Yes<br>
Format settings, Reference fra : 4 frames<br>
Format settings, GOP : M=3, N=50<br>
Codec ID : V_MPEG4/ISO/AVC<br>
Duration : 4 h 19 min<br>
Bit rate : 5207 kb/s<br>
Width : 1920 pixels<br>
Height : 1080 pixels<br>
Display aspect ratio : 16:9<br>
Frame rate mode : Constant<br>
Frame rate : 25.000 FPS<br>
Color space : YUV<br>
Chroma subsampling : 4:2:0<br>
Bit depth : 8 bits<br>
Scan type : Progressive<br>
Bits/(Pixel*Frame) : 0.100<br>
Stream size : 9.45 GiB (96%)<br>
Title : Capital FM Jingle Bell Ball, Live Stream (1080p) (Live Stream) (9/12/23) [MAVERICK]<br>
Language : English<br>
Default : No<br>
Forced : No<br>
<br>
Audio<br>
ID : 2<br>
Format : AAC LC<br>
Format/Info : Advanced Audio Codec Low Complexity<br>
Codec ID : A_AAC-2<br>
Duration : 4 h 19 min<br>
Bit rate : 192 kb/s<br>
Channel(s) : 2 channels<br>
Channel layout : L R<br>
Sampling rate : 48.0 kHz<br>
Frame rate : 46.875 FPS (1024 SPF)<br>
Compression mode : Lossy<br>
Stream size : 352 MiB (4%)<br>
Title : Stereo<br>
Language : English<br>
Default : Yes<br>
Forced : No</div>
</div>
<div class="ToggleTriggerAnchor bbCodeSpoilerContainer">
<button type="button" class="button bbCodeSpoilerButton ToggleTrigger Tooltip JsOnly" data-target="> .SpoilerTarget"><span>Spoiler: <span class="SpoilerTitle">Download (Gofile):</span></span></button>
<div class="SpoilerTarget bbCodeSpoilerText">
<div class="bbCodeBlock bbCodeVfcHH HiddenContent">
<div class="attribution type">Hidden Content:</div>
<blockquote>You must either reply or click 'Like' to see the hidden information contained here.</blockquote>
</div></div>
</div><br>
<div style="text-align: center">Countdown to the UK’s biggest Christmas party, Capital’s Jingle Bell Ball with Barclaycard 2023, with all the biggest bops from our Ballers including 15x GRAMMY Award winner Alicia Keys, noughties icons Busted, pop tycoons Take That and the wonderful RAYE! And if you're listening on Alexa, just say: "Alexa, ask Global Player to play Countdown to the Ball!"​</div><br>
<div style="text-align: center"><b><b><b>Please Note These Files Have Been uploaded to Gofile, because its free fast upload and download speeds Grab it while you can, Admin should reupload My files to google drive.</b></b><br>
<br>
<b><b><b>Please Credit Me Maverick if you are going to upload my files elsewhere!</b></b></b></b>​</div><br>
<div style="text-align: center"><b><b><b><b>New Content will only Be Uploaded from this Account <a href="https://sharemania.us/members/176676/" class="username" data-user="176676, @Maverick">@Maverick</a></b></b></b></b><br>
<br>
<b><b><b>Enjoy <img src="styles/default/xenforo/smilies/big_smile-48.png" class="mceSmilie" alt=":)" title="Smile    :)"></b></b></b>​</div>
<div class="messageTextEndMarker">&nbsp;</div>
</blockquote>
</article>]]></description>
                <author><![CDATA[Maverick]]></author>
                </item>

                </channel></rss>